<svg width="20" height="14" viewBox="0 0 20 14" fill="none" xmlns="http://www.w3.org/2000/svg">
<g clip-path="url(#clip0)">
<path d="M17.1478 0H2.85315C2.10263 0.0018463 1.38338 0.300806 0.852682 0.831503C0.321985 1.3622 0.0230255 2.08145 0.0211792 2.83197L0.0211792 11.168C0.0230255 11.9186 0.321985 12.6378 0.852682 13.1685C1.38338 13.6992 2.10263 13.9982 2.85315 14H17.1478C17.8983 13.9982 18.6176 13.6992 19.1483 13.1685C19.679 12.6378 19.9779 11.9186 19.9798 11.168V2.83197C19.9774 2.08161 19.6783 1.36267 19.1477 0.832083C18.6171 0.301499 17.8982 0.00237081 17.1478 0V0ZM7.04965 10.3809V3.61912L13.8114 6.9995L7.04965 10.3809Z" fill="white"/>
</g>
<defs>
<clipPath id="clip0">
<rect width="20" height="14" fill="white"/>
</clipPath>
</defs>
</svg>
