<svg width="18" height="14" viewBox="0 0 18 14" fill="none" xmlns="http://www.w3.org/2000/svg">
<path d="M11.4185 0.146087C13.076 -0.316028 14.3535 0.39815 14.9368 1.24409C15.5995 1.02926 16.2468 0.79534 16.9152 0.585288C16.9113 1.38826 16.4015 1.99646 16.0721 2.23516C16.7442 2.39269 17.3544 1.7759 17.3544 1.7759C17.1873 2.70873 16.3662 3.44296 15.8162 3.66351C15.588 9.95745 12.6921 14.1241 5.90363 13.9971H5.46443C5.06151 13.9971 1.3684 13.5675 0.64563 12.2375C2.88078 12.4208 4.47527 11.8441 5.26201 11.1395C4.31773 10.8597 2.62585 10.6965 2.33082 8.38874C2.67646 8.48899 2.88746 8.60166 3.5033 8.50045C2.32319 7.70225 1.01322 7.03295 1.08579 4.98207C1.36649 5.28664 2.13605 5.48142 2.40434 5.42222C1.71212 5.19785 0.46613 2.28958 1.52499 0.804888C3.3133 2.53496 5.199 4.16668 8.56079 4.32327C8.76702 2.18455 9.67884 0.752375 11.4185 0.146087V0.146087Z" fill="white"/>
</svg>
